# xmcd CD database file
#
# Track frame offsets:
#	150
#	34995
#	38135
#	65389
#	90345
#	92090
#	124182
#	149462
#	177075
#	182042
#	216330
#	241250
#	256030
#	274767
#	307685
#
# Disc length: 4378 seconds
#
# Revision: 4
# Processed by: cddbd v1.5.2PL0 Copyright (c) Steve Scherf et al.
# Submitted via: CDex 1.70beta3
#
DISCID=c911180f
DTITLE=MONDO GROSSO - MG4
DYEAR=2000
DGENRE=World
TTITLE0=MG2SS
TTITLE1=into the wind
TTITLE2=BUTTERFLY
TTITLE3=SHOW ME YOUR LOVE
TTITLE4=into the sound
TTITLE5=LIFE feat. bird
TTITLE6=MG4BB
TTITLE7=CENARIO
TTITLE8=into the seawind
TTITLE9=SAMBA DO GATO
TTITLE10=NOW YOU KNOW BETTER
TTITLE11=STAR SUITE Ⅰ New Star
TTITLE12=STAR SUITE Ⅱ Fading Star
TTITLE13=STAR SUITE Ⅲ North Star
TTITLE14=1974 -WAY HOME-
EXTD=YEAR: 2000
EXTT0=
EXTT1=
EXTT2=
EXTT3=
EXTT4=
EXTT5=
EXTT6=
EXTT7=
EXTT8=
EXTT9=
EXTT10=
EXTT11=
EXTT12=
EXTT13=
EXTT14=
PLAYORDER=
